<svg width="1500" height="1500" viewBox="0 0 1500 1500" fill="none" xmlns="http://www.w3.org/2000/svg">
<path fill-rule="evenodd" clip-rule="evenodd" d="M1280.3 219.6C1422 361.3 1500 549.6 1500 750C1500 950.3 1422 1138.6 1280.3 1280.3C1138.7 1422 950.3 1500 750 1500C549.7 1500 361.3 1422 219.7 1280.3C78.0002 1138.6 0 950.3 0 750C0 549.6 78.0002 361.3 219.7 219.6C361.3 78 549.7 0 750 0C950.3 0 1138.7 78 1280.3 219.6Z" fill="white"/>
<path fill-rule="evenodd" clip-rule="evenodd" d="M1280.3 219.6C1422 361.3 1500 549.6 1500 750C1500 950.3 1422 1138.6 1280.3 1280.3C1138.7 1422 950.3 1500 750 1500C549.7 1500 361.3 1422 219.7 1280.3C78.0002 1138.6 0 950.3 0 750C0 549.6 78.0002 361.3 219.7 219.6C361.3 78 549.7 0 750 0C950.3 0 1138.7 78 1280.3 219.6ZM34.2998 750C34.2998 1145.2 354.7 1465.7 750 1465.7C1145.3 1465.7 1465.7 1145.2 1465.7 750C1465.7 354.7 1145.3 34.3 750 34.3C354.7 34.3 34.2998 354.7 34.2998 750Z" fill="black"/>
<path d="M1354.7 911.9C1343.3 971.9 1319.5 1029.6 1287.4 1081.9C1255 1134 1214 1181.1 1165.6 1218.3C1208.1 1174.5 1246.3 1127.5 1277.9 1076C1309.8 1024.8 1334.8 969.6 1354.7 911.9Z" fill="black"/>
<path d="M147.8 911.9C167.7 969.6 192.7 1024.8 224.6 1076C256.2 1127.5 294.4 1174.5 336.9 1218.3C288.5 1181.1 247.5 1134 215.1 1081.9C183 1029.6 159.2 971.9 147.8 911.9Z" fill="black"/>
<path d="M120.9 856.8L135.1 854.5L129.5 820.2L150.4 816.8L156 851.1L182.3 846.8L186.8 874.6L104.5 888L93.6001 821L114.6 817.6L120.9 856.8Z" fill="black"/>
<path fill-rule="evenodd" clip-rule="evenodd" d="M153.5 766L153.7 773.6L174.7 773.2L175.3 801.3L91.9 803.1L91.0001 763C90.5001 739.7 102.3 724.7 121.6 724.2C133.6 724 142.8 729.5 148.2 739.4L173.5 721.3L174.2 751.3L153.5 766ZM112.7 764.3L112.9 774.6L132.4 774.2L132.2 763.9C132 756.2 128.3 752.5 122.2 752.7C116.1 752.8 112.5 756.6 112.7 764.3Z" fill="black"/>
<path d="M161.4 644.1L182.5 646.6L174.4 715.4L91.5 705.7L99.5 638.4L120.5 640.8L115.8 680.7L125.5 681.9L129.7 646.8L149.8 649.2L145.7 684.2L156.6 685.5L161.4 644.1Z" fill="black"/>
<path d="M181 566.1L201.5 571.4L184.2 638.5L103.5 617.7L120.4 552L140.9 557.3L130.9 596.2L140.4 598.6L149.2 564.5L168.8 569.6L160 603.7L170.6 606.4L181 566.1Z" fill="black"/>
<path d="M215.6 515.6L201.6 498.2C209.3 493.3 216.8 485.4 221 477.3C224.7 470.2 224.5 466.9 222 465.6C212.7 460.7 198.9 505.5 171.3 491.2C157.6 484 152.4 466.7 164.3 443.7C169.5 433.8 176.9 424.7 185.3 419.2L199.5 436.1C192 441.5 186.6 447.4 183.2 453.9C179.4 461.1 180.4 464.6 182.9 465.9C191.8 470.5 205.6 425.8 232.9 439.9C246.4 447 251.9 464.4 239.9 487.4C233.5 499.7 223.9 510.6 215.6 515.6Z" fill="black"/>
<path fill-rule="evenodd" clip-rule="evenodd" d="M223 425.2C202.6 410.3 199.5 383.4 215.5 361.4C231.5 339.5 258.1 334.2 278.5 349.1C298.9 364 302 390.9 286 412.9C270 434.8 243.4 440.1 223 425.2ZM261.8 372C251.3 364.4 240 366.5 233.9 374.9C227.8 383.2 229.2 394.6 239.7 402.3C250.2 409.9 261.5 407.8 267.6 399.5C273.7 391.1 272.3 379.7 261.8 372Z" fill="black"/>
<path d="M285.6 341.6C267.6 323.4 268.9 296.8 287.9 277.9C299.5 266.4 312.8 261.6 326.2 263.4L324.8 287.1C316.9 286.2 310.3 287.8 304.9 293C296.7 301.3 296.8 312.6 305.8 321.6C314.7 330.7 326 330.9 334.3 322.6C339.6 317.3 341.3 310.7 340.4 302.9L364.1 301.6C365.8 315 360.9 328.3 349.3 339.8C330.3 358.7 303.7 359.8 285.6 341.6Z" fill="black"/>
<path d="M328 244L350 226.5L402 291.7L380 309.2L328 244Z" fill="black"/>
<path d="M457.8 228.8L469.2 246.6L410.9 284.1L365.8 214L422.8 177.3L434.3 195.1L400.5 216.9L405.8 225.1L435.5 206L446.4 223L416.8 242.1L422.7 251.3L457.8 228.8Z" fill="black"/>
<path d="M466.9 179.3L444.7 189.7L435.5 170L505.2 137.2L514.5 157L492.3 167.4L518.5 223.2L493 235.1L466.9 179.3Z" fill="black"/>
<path d="M581 168.4L590.1 197.3L563.3 205.8L554.1 176.5L508.2 135.6L536.5 126.7L561.4 149.1L569.1 116.4L595.1 108.3L581 168.4Z" fill="black"/>
<path fill-rule="evenodd" clip-rule="evenodd" d="M735.7 122C737.4 141.2 723.7 154.6 700.5 156.5L688.6 157.6L690.3 178L662.3 180.4L655.2 97.3L695.2 93.9C718.3 91.9 734.1 102.7 735.7 122ZM707.5 124.4C706.9 118.3 703 115 695.2 115.6L685 116.5L686.7 136L696.9 135.1C704.6 134.4 708 130.4 707.5 124.4Z" fill="black"/>
<path fill-rule="evenodd" clip-rule="evenodd" d="M783.3 155L775.7 154.6L774.4 175.5L746.3 173.8L751.5 90.5L791.6 93C814.8 94.4 828.8 107.4 827.6 126.7C826.9 138.7 820.6 147.4 810.3 151.9L826.2 178.7L796.2 176.8L783.3 155ZM788.4 114.5L778.2 113.9L777 133.4L787.2 134C795 134.5 798.9 131 799.3 125C799.6 118.9 796.2 115 788.4 114.5Z" fill="black"/>
<path fill-rule="evenodd" clip-rule="evenodd" d="M837.7 137.8C843.2 113.2 866.6 99.6001 893.1 105.4C919.6 111.3 935.1 133.5 929.6 158.2C924.2 182.9 900.8 196.5 874.3 190.6C847.7 184.7 832.3 162.5 837.7 137.8ZM902 152.1C904.8 139.4 898.3 129.9 888.2 127.7C878.1 125.4 868.2 131.3 865.4 144C862.6 156.6 869.1 166.1 879.2 168.4C889.3 170.6 899.1 164.7 902 152.1Z" fill="black"/>
<path d="M920.5 188.7L940.9 177.2C943.1 183.9 946.1 187.9 950.4 189.6C955.9 191.6 960.2 189.4 962.6 183L973.7 153.3L947.1 143.4L954.5 123.5L1007.1 143.2L989.2 191.2C981.1 212.6 965.9 218.9 945 211.1C932.8 206.5 924.1 198.7 920.5 188.7Z" fill="black"/>
<path d="M1058.8 238.8L1048.9 257.6L987.5 225.3L1026.3 151.5L1086.3 183L1076.4 201.8L1040.9 183.1L1036.4 191.8L1067.6 208.2L1058.2 226.1L1026.9 209.7L1021.8 219.4L1058.8 238.8Z" fill="black"/>
<path d="M1077.5 225.9C1092.5 205.2 1119 202.1 1140.7 217.8C1154 227.4 1160.9 239.7 1161.3 253.2L1137.6 255.7C1137.3 247.8 1134.7 241.5 1128.6 237.1C1119.1 230.2 1108 232.2 1100.5 242.6C1093 252.9 1094.7 264.1 1104.2 270.9C1110.2 275.3 1117.1 275.8 1124.7 273.7L1129.8 296.9C1116.8 300.8 1102.9 298.1 1089.7 288.5C1067.9 272.8 1062.5 246.7 1077.5 225.9Z" fill="black"/>
<path d="M1180 280.6L1162.4 263.7L1177.5 248L1233.1 301.2L1218 317L1200.4 300.1L1157.8 344.6L1137.4 325.1L1180 280.6Z" fill="black"/>
<path d="M1262.4 443.1L1244.9 455.1L1205.6 397.9L1274.5 350.7L1312.8 406.6L1295.3 418.6L1272.6 385.5L1264.5 391L1284.5 420.1L1267.8 431.6L1247.8 402.5L1238.8 408.7L1262.4 443.1Z" fill="black"/>
<path d="M1282.6 444.7L1323.8 424.5L1336.2 449.7L1295.7 469.6C1284.2 475.2 1282.1 481.7 1285.6 488.7C1289 495.8 1295.4 498.1 1306.9 492.5L1347.4 472.6L1359.5 497.5L1318.3 517.7C1295.8 528.7 1276.3 521.5 1265 498.5C1253.7 475.5 1260.1 455.7 1282.6 444.7Z" fill="black"/>
<path fill-rule="evenodd" clip-rule="evenodd" d="M1318.7 571.4L1316.4 564.1L1296.4 570.3L1288 543.5L1367.7 518.7L1379.6 557C1386.5 579.2 1379.3 596.9 1360.9 602.7C1349.4 606.2 1339 603.5 1331.2 595.4L1311.8 619.8L1302.9 591.1L1318.7 571.4ZM1358.4 561.8L1355.3 552L1336.7 557.8L1339.7 567.6C1342 575 1346.6 577.5 1352.4 575.7C1358.2 573.8 1360.7 569.2 1358.4 561.8Z" fill="black"/>
<path fill-rule="evenodd" clip-rule="evenodd" d="M1354 616.2C1379 612.6 1399.9 629.7 1403.8 656.6C1407.6 683.5 1392.3 705.8 1367.2 709.4C1342.2 712.9 1321.2 695.8 1317.4 668.9C1313.6 642 1328.9 619.7 1354 616.2ZM1363.2 681.3C1376.1 679.5 1382.7 670.1 1381.2 659.8C1379.8 649.6 1370.8 642.4 1358 644.2C1345.1 646.1 1338.5 655.4 1339.9 665.7C1341.4 676 1350.4 683.1 1363.2 681.3Z" fill="black"/>
<path fill-rule="evenodd" clip-rule="evenodd" d="M1376.3 801.5C1357 801.2 1345.1 786.2 1345.5 763L1345.6 751L1325.1 750.6L1325.6 722.5L1409 723.8L1408.4 764C1408 787.3 1395.6 801.8 1376.3 801.5ZM1376.8 773.2C1382.8 773.3 1386.6 769.6 1386.7 761.9L1386.9 751.6L1367.3 751.3L1367.2 761.6C1367.1 769.3 1370.7 773.1 1376.8 773.2Z" fill="black"/>
<path d="M1333.5 879L1312.6 875.7L1323.3 807.2L1405.7 820L1395.2 887L1374.3 883.8L1380.5 844.1L1370.8 842.6L1365.4 877.4L1345.4 874.3L1350.8 839.5L1340 837.8L1333.5 879Z" fill="black"/>
<path d="M449.3 1328.4C452.3 1324.6 455.767 1320.2 459.7 1315.2C463.633 1310.2 467.767 1305 472.1 1299.6C476.5 1294.13 480.9 1288.67 485.3 1283.2C489.7 1277.73 493.866 1272.63 497.8 1267.9C492.266 1271.17 486.7 1274.47 481.1 1277.8C475.5 1281.07 470.2 1284.2 465.2 1287.2C460.133 1290.13 455.533 1292.8 451.4 1295.2C447.266 1297.53 443.933 1299.43 441.4 1300.9C439.4 1301.7 437.433 1302.43 435.5 1303.1C433.566 1303.77 431.767 1304.27 430.1 1304.6C428.433 1304.93 426.866 1305.07 425.4 1305C424 1304.93 422.8 1304.6 421.8 1304C420.466 1303.2 419.6 1302.27 419.2 1301.2C418.733 1300.13 418.867 1299.03 419.6 1297.9C419.733 1297.63 419.867 1297.4 420 1297.2C420.2 1297 420.4 1296.8 420.6 1296.6C424.533 1289.73 428.567 1282.8 432.7 1275.8C436.833 1268.87 440.933 1262.07 445 1255.4C446 1253.8 447 1252.23 448 1250.7C448.933 1249.1 449.9 1247.57 450.9 1246.1C446.366 1249.17 441.533 1252.33 436.4 1255.6C431.333 1258.8 426.2 1261.9 421 1264.9C415.8 1267.9 410.6 1270.67 405.4 1273.2C400.266 1275.8 395.367 1278 390.7 1279.8C386.033 1281.6 381.7 1282.93 377.7 1283.8C373.7 1284.67 370.266 1284.87 367.4 1284.4C364.933 1283.93 362.833 1283.43 361.1 1282.9C359.433 1282.37 358.033 1281.73 356.9 1281C355.166 1279.93 354.1 1278.8 353.7 1277.6C353.3 1276.4 353.4 1275.3 354 1274.3C354.733 1273.1 356 1272.17 357.8 1271.5C359.6 1270.83 361.633 1270.7 363.9 1271.1C366.633 1271.63 370.2 1271.23 374.6 1269.9C379 1268.57 383.867 1266.67 389.2 1264.2C394.533 1261.73 400.2 1258.8 406.2 1255.4C412.2 1252 418.167 1248.5 424.1 1244.9C429.967 1241.23 435.633 1237.6 441.1 1234C446.567 1230.33 451.5 1227.03 455.9 1224.1C460.233 1221.1 463.833 1218.6 466.7 1216.6C469.567 1214.6 471.333 1213.37 472 1212.9C473.6 1211.83 475.2 1211.33 476.8 1211.4C478.4 1211.47 479.8 1211.87 481 1212.6C482.733 1213.67 483.633 1214.87 483.7 1216.2C483.833 1217.53 483.167 1219.4 481.7 1221.8C480.233 1225 478.8 1228.03 477.4 1230.9C476 1233.7 474.533 1236.53 473 1239.4C471.466 1242.33 469.733 1245.4 467.8 1248.6C465.933 1251.87 463.7 1255.6 461.1 1259.8C459.233 1262.8 457.1 1266.07 454.7 1269.6C452.367 1273.13 449.833 1277.13 447.1 1281.6C459.167 1274.8 469.867 1268.8 479.2 1263.6C488.533 1258.4 496.466 1254.13 503 1250.8C509.6 1247.47 514.866 1245.13 518.8 1243.8C522.733 1242.47 525.367 1242.2 526.7 1243L527.2 1243.3C527.333 1243.37 527.467 1243.43 527.6 1243.5C527.8 1243.57 527.967 1243.67 528.1 1243.8C529.233 1244.47 529.7 1245.73 529.5 1247.6C529.233 1249.47 528.4 1251.53 527 1253.8C525.4 1256 523.333 1258.7 520.8 1261.9C518.266 1265.17 515.433 1268.73 512.3 1272.6C509.233 1276.47 506 1280.5 502.6 1284.7C499.133 1288.97 495.733 1293.2 492.4 1297.4C489 1301.6 485.7 1305.67 482.5 1309.6C479.367 1313.6 476.567 1317.23 474.1 1320.5C473.633 1321.03 473.2 1321.63 472.8 1322.3C472.4 1322.97 472 1323.63 471.6 1324.3C470.8 1325.5 470.033 1326.77 469.3 1328.1C468.566 1329.37 467.833 1330.6 467.1 1331.8C466.167 1333.27 465.2 1334.67 464.2 1336C463.133 1337.4 461.933 1338.47 460.6 1339.2C459.2 1340 457.6 1340.33 455.8 1340.2C453.933 1340.07 451.8 1339.27 449.4 1337.8C448.066 1337 447.333 1335.87 447.2 1334.4C447.067 1332.93 447.766 1330.93 449.3 1328.4Z" fill="black"/>
<path fill-rule="evenodd" clip-rule="evenodd" d="M545.1 1308.9C547.1 1309.63 549.134 1310.7 551.2 1312.1C553.267 1313.5 555.033 1315.2 556.5 1317.2C557.9 1319.2 558.867 1321.47 559.4 1324C559.867 1326.6 559.5 1329.4 558.3 1332.4C557.7 1334 556.8 1335.7 555.6 1337.5C554.4 1339.37 552.967 1341.23 551.3 1343.1C551.633 1343.97 552.067 1344.63 552.6 1345.1C553.2 1345.63 553.9 1346.07 554.7 1346.4C555.767 1346.8 557.1 1346.93 558.7 1346.8C560.234 1346.73 561.9 1346.47 563.7 1346C565.5 1345.53 567.334 1344.97 569.2 1344.3C571.134 1343.57 572.967 1342.8 574.7 1342C576.434 1341.27 578.033 1340.53 579.5 1339.8C580.9 1339.07 582.1 1338.43 583.1 1337.9C583.634 1337.7 584.167 1337.7 584.7 1337.9C585.367 1338.17 585.867 1338.8 586.2 1339.8C586.467 1340.8 586.333 1341.97 585.8 1343.3C585.267 1344.63 584.267 1346.03 582.8 1347.5C581.267 1348.97 579.034 1350.23 576.1 1351.3C574.367 1352.23 572.333 1353.27 570 1354.4C567.733 1355.53 565.367 1356.53 562.9 1357.4C560.5 1358.27 558.1 1358.87 555.7 1359.2C553.234 1359.53 551.034 1359.3 549.1 1358.5C547.7 1357.97 546.467 1357.27 545.4 1356.4C544.267 1355.47 543.233 1354.27 542.3 1352.8C539.3 1355 536.133 1356.83 532.8 1358.3C529.467 1359.83 526 1360.87 522.4 1361.4C518.733 1362 515 1362.13 511.2 1361.8C507.467 1361.47 503.667 1360.53 499.8 1359C498.333 1358.47 496.733 1357.53 495 1356.2C493.267 1354.87 491.8 1353.2 490.6 1351.2C489.334 1349.2 488.534 1346.9 488.2 1344.3C487.8 1341.7 488.2 1338.87 489.4 1335.8C490.2 1333.67 491.5 1331.27 493.3 1328.6C495.1 1325.93 497.3 1323.33 499.9 1320.8C502.5 1318.2 505.434 1315.8 508.7 1313.6C511.967 1311.33 515.533 1309.57 519.4 1308.3C523.267 1306.97 527.367 1306.3 531.7 1306.3C536.034 1306.23 540.5 1307.1 545.1 1308.9ZM535.7 1321.1C533.234 1320.17 530.633 1319.87 527.9 1320.2C525.167 1320.53 522.533 1321.37 520 1322.7C517.467 1324.03 515.2 1325.77 513.2 1327.9C511.2 1330.03 509.667 1332.43 508.6 1335.1C508.267 1336.1 507.934 1337.2 507.6 1338.4C507.334 1339.67 507.233 1340.9 507.3 1342.1C507.433 1343.3 507.833 1344.43 508.5 1345.5C509.167 1346.5 510.3 1347.3 511.9 1347.9C514.3 1348.83 516.867 1349.1 519.6 1348.7C522.4 1348.3 525.067 1347.43 527.6 1346.1C530.2 1344.7 532.5 1342.9 534.5 1340.7C536.567 1338.5 538.134 1336.07 539.2 1333.4C539.6 1332.33 539.934 1331.23 540.2 1330.1C540.534 1328.9 540.633 1327.73 540.5 1326.6C540.367 1325.47 539.934 1324.43 539.2 1323.5C538.534 1322.5 537.367 1321.7 535.7 1321.1Z" fill="black"/>
<path d="M587.3 1333.2C588.966 1331.13 590.767 1329.73 592.7 1329C594.567 1328.27 596.3 1328.1 597.9 1328.5C599.166 1328.83 600.2 1329.6 601 1330.8C601.8 1332 602 1333.53 601.6 1335.4C601.4 1336.07 601.1 1336.8 600.7 1337.6C600.367 1338.33 599.867 1339.13 599.2 1340C600.8 1338.73 602.9 1337.57 605.5 1336.5C608.1 1335.5 610.9 1334.7 613.9 1334.1C616.9 1333.43 619.933 1333.07 623 1333C626.066 1332.87 628.866 1333.1 631.4 1333.7C634.333 1334.43 636.567 1335.73 638.1 1337.6C639.7 1339.47 640.1 1342.07 639.3 1345.4C638.833 1347.33 638.033 1349.3 636.9 1351.3C635.766 1353.23 634.466 1355.13 633 1357C631.533 1358.93 629.966 1360.77 628.3 1362.5C626.633 1364.23 625 1365.87 623.4 1367.4C621.8 1368.87 620.333 1370.23 619 1371.5C617.666 1372.77 616.633 1373.83 615.9 1374.7C614.966 1375.37 614.367 1376.27 614.1 1377.4C613.967 1377.87 614 1378.3 614.2 1378.7C614.4 1379.1 614.8 1379.37 615.4 1379.5C615.733 1379.57 616.167 1379.63 616.7 1379.7C617.233 1379.7 617.9 1379.57 618.7 1379.3C621.9 1378.9 625.233 1378.27 628.7 1377.4C632.167 1376.53 635.533 1375.53 638.8 1374.4C642.133 1373.33 645.2 1372.17 648 1370.9C650.8 1369.63 653.167 1368.47 655.1 1367.4C655.633 1367.13 656.133 1366.97 656.6 1366.9C657.067 1366.83 657.5 1366.87 657.9 1367C658.833 1367.2 659.466 1367.73 659.8 1368.6C660.133 1369.4 660.166 1370.37 659.9 1371.5C659.5 1373.17 658.5 1374.9 656.9 1376.7C655.366 1378.5 653.233 1380 650.5 1381.2C646.833 1382.67 643.5 1384 640.5 1385.2C637.433 1386.47 634.366 1387.57 631.3 1388.5C628.166 1389.43 624.9 1390.2 621.5 1390.8C618.1 1391.47 614.2 1391.87 609.8 1392C608.266 1392.07 606.9 1392.07 605.7 1392C604.433 1391.93 603.333 1391.8 602.4 1391.6C599.466 1390.87 597.533 1389.53 596.6 1387.6C595.667 1385.67 595.566 1383.27 596.3 1380.4C596.433 1380 596.533 1379.63 596.6 1379.3C596.733 1378.97 596.866 1378.6 597 1378.2C597.533 1376.53 598.433 1374.77 599.7 1372.9C601.033 1371.1 602.5 1369.3 604.1 1367.5C605.767 1365.63 607.467 1363.8 609.2 1362C611 1360.2 612.667 1358.5 614.2 1356.9C615.667 1355.3 616.933 1353.87 618 1352.6C619.066 1351.27 619.733 1350.13 620 1349.2C620.2 1348.4 620.133 1347.67 619.8 1347C619.466 1346.33 618.833 1345.87 617.9 1345.6C614.433 1344.73 610.9 1344.97 607.3 1346.3C603.633 1347.57 600.067 1349.37 596.6 1351.7C593.2 1354.1 589.933 1356.7 586.8 1359.5C583.666 1362.3 580.9 1364.8 578.5 1367C576.966 1368.53 575.5 1370.2 574.1 1372C572.7 1373.87 571.3 1375.53 569.9 1377C568.5 1378.53 567.033 1379.73 565.5 1380.6C564.033 1381.47 562.366 1381.67 560.5 1381.2C558.566 1380.73 557.233 1379.77 556.5 1378.3C555.7 1376.83 555.5 1375.23 555.9 1373.5C556.1 1372.57 556.833 1371.17 558.1 1369.3C559.433 1367.43 561.033 1365.3 562.9 1362.9C564.7 1360.5 566.733 1357.9 569 1355.1C571.266 1352.37 573.533 1349.63 575.8 1346.9C578.066 1344.23 580.2 1341.7 582.2 1339.3C584.267 1336.97 585.966 1334.93 587.3 1333.2Z" fill="black"/>
<path d="M676.4 1355.1C673.8 1358.77 671.3 1362.37 668.9 1365.9C666.567 1369.43 664.367 1372.7 662.3 1375.7C661.433 1376.97 660.567 1378.43 659.7 1380.1C658.834 1381.7 658.3 1383.17 658.1 1384.5C658.034 1385.3 658.133 1385.93 658.4 1386.4C658.733 1386.93 659.3 1387.27 660.1 1387.4C661.234 1387.53 662.767 1387.37 664.7 1386.9C666.567 1386.5 668.6 1385.87 670.8 1385C673 1384.13 675.333 1383.13 677.8 1382C680.267 1380.87 682.7 1379.67 685.1 1378.4C687.5 1377.07 689.834 1375.77 692.1 1374.5C694.3 1373.17 696.267 1371.97 698 1370.9C699 1370.37 699.867 1370.17 700.6 1370.3C701.534 1370.43 702.267 1370.97 702.8 1371.9C703.267 1372.77 703.4 1373.87 703.2 1375.2C703.067 1376.47 702.6 1377.7 701.8 1378.9C701 1380.17 699.7 1381.33 697.9 1382.4C693.833 1385.13 689.767 1387.73 685.7 1390.2C681.567 1392.6 677.534 1394.67 673.6 1396.4C669.667 1398.13 665.834 1399.43 662.1 1400.3C658.367 1401.1 654.833 1401.27 651.5 1400.8C649.3 1400.53 647.5 1400 646.1 1399.2C644.7 1398.4 643.6 1397.43 642.8 1396.3C642 1395.1 641.533 1393.8 641.4 1392.4C641.2 1391 641.2 1389.53 641.4 1388C641.8 1385.2 642.667 1382.37 644 1379.5C645.333 1376.63 646.767 1374.1 648.3 1371.9C650.433 1368.7 652.567 1365.53 654.7 1362.4C656.767 1359.2 658.8 1356.17 660.8 1353.3L657.2 1352.8C654.134 1352.4 652.067 1351.6 651 1350.4C650 1349.27 649.6 1348.07 649.8 1346.8C649.867 1346.2 650.134 1345.53 650.6 1344.8C651.067 1344.07 651.7 1343.4 652.5 1342.8C653.3 1342.2 654.233 1341.7 655.3 1341.3C656.367 1340.97 657.533 1340.9 658.8 1341.1L667.7 1342.3L690.1 1309.9C691.567 1307.97 693.167 1306.67 694.9 1306C696.633 1305.33 698.4 1305.1 700.2 1305.3C701.867 1305.57 703.334 1306.23 704.6 1307.3C705.867 1308.37 706.333 1309.93 706 1312C705.867 1313.07 705.5 1314.1 704.9 1315.1C704.3 1316.1 703.5 1317.27 702.5 1318.6C701.833 1319.47 701.067 1320.5 700.2 1321.7C699.267 1322.9 698.3 1324.2 697.3 1325.6C696.3 1326.93 695.267 1328.33 694.2 1329.8C693.134 1331.33 692.067 1332.77 691 1334.1C688.6 1337.43 686.1 1340.9 683.5 1344.5L710.6 1348.3C711.867 1348.5 713.067 1348.73 714.2 1349C715.267 1349.33 716.167 1349.77 716.9 1350.3C717.633 1350.77 718.2 1351.4 718.6 1352.2C718.934 1353 719 1354 718.8 1355.2C718.733 1355.8 718.567 1356.4 718.3 1357C718.033 1357.6 717.6 1358.1 717 1358.5C716.4 1358.97 715.6 1359.3 714.6 1359.5C713.667 1359.7 712.467 1359.73 711 1359.6L676.4 1355.1Z" fill="black"/>
<path fill-rule="evenodd" clip-rule="evenodd" d="M734.5 1344.9C739.1 1345.17 742.5 1346.47 744.7 1348.8C746.9 1351.2 747.867 1354.37 747.6 1358.3C747.467 1360.63 746.733 1363.07 745.4 1365.6C744 1368.13 741.733 1370.63 738.6 1373.1C735.467 1375.57 731.3 1378.07 726.1 1380.6C720.9 1383.07 714.4 1385.5 706.6 1387.9C706.8 1389.57 707.6 1390.9 709 1391.9C710.4 1392.9 712.3 1393.43 714.7 1393.5C717.3 1393.7 720.1 1393.5 723.1 1392.9C726.033 1392.3 728.967 1391.47 731.9 1390.4C734.833 1389.4 737.733 1388.3 740.6 1387.1C743.4 1385.83 745.933 1384.67 748.2 1383.6C750.467 1382.47 752.367 1381.5 753.9 1380.7C755.433 1379.9 756.433 1379.4 756.9 1379.2C757.433 1378.87 757.933 1378.67 758.4 1378.6C758.8 1378.6 759.167 1378.6 759.5 1378.6C760.167 1378.67 760.7 1378.87 761.1 1379.2C761.567 1379.53 761.933 1379.9 762.2 1380.3C762.467 1380.77 762.666 1381.23 762.8 1381.7C762.866 1382.17 762.9 1382.57 762.9 1382.9C762.833 1383.43 762.733 1384.03 762.6 1384.7C762.467 1385.43 762 1386.2 761.2 1387C760.933 1387.27 759.966 1387.97 758.3 1389.1C756.633 1390.3 754.5 1391.67 751.9 1393.2C749.3 1394.73 746.3 1396.33 742.9 1398C739.433 1399.73 735.8 1401.27 732 1402.6C728.2 1404 724.267 1405.1 720.2 1405.9C716.133 1406.7 712.133 1407 708.2 1406.8C704.867 1406.6 701.933 1405.8 699.4 1404.4C696.867 1403 694.767 1401.17 693.1 1398.9C691.367 1396.63 690.1 1394.03 689.3 1391.1C688.5 1388.23 688.2 1385.23 688.4 1382.1C688.533 1379.7 689.133 1377.07 690.2 1374.2C691.333 1371.4 692.866 1368.6 694.8 1365.8C696.733 1362.93 699.066 1360.2 701.8 1357.6C704.533 1355 707.6 1352.7 711 1350.7C714.333 1348.77 717.967 1347.27 721.9 1346.2C725.9 1345.13 730.1 1344.7 734.5 1344.9ZM730.8 1356.3C730.533 1356.23 730.3 1356.2 730.1 1356.2C729.9 1356.2 729.633 1356.2 729.3 1356.2C727.233 1356.07 725.233 1356.37 723.3 1357.1C721.433 1357.83 719.7 1358.83 718.1 1360.1C716.5 1361.43 715.033 1362.93 713.7 1364.6C712.433 1366.27 711.267 1367.93 710.2 1369.6C709.2 1371.2 708.333 1372.77 707.6 1374.3C706.867 1375.83 706.3 1377.13 705.9 1378.2C707.9 1377.33 710 1376.3 712.2 1375.1C714.333 1373.9 716.366 1372.77 718.3 1371.7C720.166 1370.63 721.833 1369.67 723.3 1368.8C724.7 1367.93 725.667 1367.33 726.2 1367C728.8 1365.6 730.633 1364.23 731.7 1362.9C732.7 1361.57 733.233 1360.4 733.3 1359.4C733.366 1358.53 733.133 1357.87 732.6 1357.4C732.067 1356.87 731.466 1356.5 730.8 1356.3Z" fill="black"/>
<path d="M770.3 1381.4C769.7 1382.67 769.133 1384.17 768.6 1385.9C768.067 1387.63 767.833 1389.17 767.9 1390.5C767.9 1391.37 768.067 1392.03 768.4 1392.5C768.8 1393.03 769.467 1393.27 770.4 1393.2C771.533 1393.2 773 1392.8 774.8 1392C776.533 1391.27 778.4 1390.3 780.4 1389.1C782.4 1387.9 784.467 1386.53 786.6 1385C788.8 1383.4 790.967 1381.77 793.1 1380.1C795.233 1378.43 797.267 1376.8 799.2 1375.2C801.134 1373.53 802.867 1372 804.4 1370.6C804.8 1370.2 805.3 1369.9 805.9 1369.7C806.5 1369.5 807.033 1369.4 807.5 1369.4C808.633 1369.4 809.567 1369.77 810.3 1370.5C811.1 1371.23 811.5 1372.27 811.5 1373.6C811.567 1374.73 811.233 1376.03 810.5 1377.5C809.7 1379.03 808.367 1380.5 806.5 1381.9C803.033 1385.37 799.5 1388.63 795.9 1391.7C792.367 1394.77 788.833 1397.5 785.3 1399.9C781.767 1402.23 778.267 1404.13 774.8 1405.6C771.267 1407.07 767.833 1407.83 764.5 1407.9C762.167 1407.97 760.234 1407.73 758.7 1407.2C757.1 1406.6 755.833 1405.8 754.9 1404.8C753.967 1403.73 753.267 1402.5 752.8 1401.1C752.4 1399.63 752.167 1398.1 752.1 1396.5C752.033 1393.77 752.367 1390.93 753.1 1388C753.767 1385.13 754.634 1382.47 755.7 1380C757.5 1375.6 759.367 1371.2 761.3 1366.8C763.167 1362.4 764.867 1358.4 766.4 1354.8L790.2 1299.9C791.134 1297.7 792.433 1296.13 794.1 1295.2C795.767 1294.27 797.467 1293.77 799.2 1293.7C800.934 1293.63 802.533 1294.03 804 1294.9C805.467 1295.83 806.233 1297.37 806.3 1299.5C806.3 1300.5 806.1 1301.57 805.7 1302.7C805.234 1303.83 804.667 1305.07 804 1306.4C802.667 1309.07 801.1 1312.33 799.3 1316.2C797.5 1320.07 795.567 1324.27 793.5 1328.8C791.367 1333.33 789.233 1338.07 787.1 1343C784.9 1347.87 782.767 1352.63 780.7 1357.3C778.634 1361.97 776.7 1366.37 774.9 1370.5C773.1 1374.7 771.567 1378.33 770.3 1381.4Z" fill="black"/>
<path d="M810.4 1349.2C811.2 1347.6 812.166 1346.4 813.3 1345.6C814.433 1344.8 815.667 1344.33 817 1344.2C819.067 1344 820.933 1344.5 822.6 1345.7C824.267 1346.9 825.233 1348.57 825.5 1350.7C825.433 1351.17 825.4 1351.67 825.4 1352.2C825.333 1352.73 825.2 1353.27 825 1353.8C824.4 1355.27 823.867 1356.53 823.4 1357.6C823.066 1358.67 822.733 1359.67 822.4 1360.6C822.066 1361.47 821.733 1362.33 821.4 1363.2C821.066 1364.07 820.7 1365.13 820.3 1366.4C819.766 1367.87 819.167 1369.47 818.5 1371.2C817.833 1372.87 817.2 1374.6 816.6 1376.4C816.067 1378.2 815.6 1379.97 815.2 1381.7C814.867 1383.43 814.767 1385 814.9 1386.4C815.033 1387.93 815.5 1388.9 816.3 1389.3C817.1 1389.63 818.2 1389.73 819.6 1389.6C821.133 1389.47 822.733 1388.97 824.4 1388.1C826 1387.3 827.6 1386.27 829.2 1385C830.867 1383.8 832.467 1382.43 834 1380.9C835.533 1379.37 836.966 1377.83 838.3 1376.3C839.633 1374.77 840.867 1373.3 842 1371.9C843.133 1370.5 844.066 1369.23 844.8 1368.1C845.8 1366.97 846.833 1366.33 847.9 1366.2C848.9 1366.13 849.767 1366.5 850.5 1367.3C851.233 1368.1 851.666 1369.2 851.8 1370.6C851.933 1371.87 851.766 1373.27 851.3 1374.8C850.833 1376.33 849.933 1377.8 848.6 1379.2C846.067 1382.4 843.433 1385.47 840.7 1388.4C838.033 1391.33 835.266 1393.97 832.4 1396.3C829.466 1398.63 826.533 1400.57 823.6 1402.1C820.6 1403.7 817.5 1404.63 814.3 1404.9C809.766 1405.37 806.1 1404.57 803.3 1402.5C800.5 1400.5 798.833 1397.03 798.3 1392.1C798.033 1389.57 798.167 1387.03 798.7 1384.5C799.167 1381.97 799.767 1379.5 800.5 1377.1C801.3 1374.7 802.133 1372.37 803 1370.1C803.933 1367.83 804.667 1365.7 805.2 1363.7C805.467 1362.9 805.867 1361.73 806.4 1360.2C806.933 1358.6 807.5 1357 808.1 1355.4C808.833 1353.47 809.6 1351.4 810.4 1349.2ZM817.7 1329.5C817.567 1328.23 817.667 1326.9 818 1325.5C818.333 1324.1 818.9 1322.8 819.7 1321.6C820.567 1320.33 821.667 1319.27 823 1318.4C824.333 1317.53 826 1317 828 1316.8C831.2 1316.53 833.5 1316.93 834.9 1318C836.3 1319.13 837.1 1320.67 837.3 1322.6C837.433 1323.67 837.333 1324.83 837 1326.1C836.733 1327.43 836.233 1328.7 835.5 1329.9C834.767 1331.03 833.767 1332.03 832.5 1332.9C831.233 1333.77 829.7 1334.3 827.9 1334.5C824.433 1334.83 821.933 1334.53 820.4 1333.6C818.933 1332.67 818.033 1331.3 817.7 1329.5Z" fill="black"/>
<path fill-rule="evenodd" clip-rule="evenodd" d="M895.6 1376.4C892.067 1382.93 887.933 1388 883.2 1391.6C878.467 1395.27 873.066 1397.7 867 1398.9C863.666 1399.57 860.733 1399.67 858.2 1399.2C855.733 1398.67 853.6 1397.73 851.8 1396.4C850.066 1395.07 848.667 1393.37 847.6 1391.3C846.533 1389.23 845.766 1386.93 845.3 1384.4C844.7 1381.67 844.467 1378.7 844.6 1375.5C844.733 1372.37 845.1 1369.3 845.7 1366.3C846.1 1364.37 846.4 1362.73 846.6 1361.4C846.867 1360.07 847.1 1358.97 847.3 1358.1C847.433 1357.17 847.567 1356.37 847.7 1355.7C847.833 1355.03 847.967 1354.3 848.1 1353.5C848.233 1352.77 848.4 1351.93 848.6 1351C848.8 1350 849.1 1348.7 849.5 1347.1L862.8 1288.9C863 1288.17 863.333 1287.4 863.8 1286.6C864.333 1285.8 864.967 1285.07 865.7 1284.4C866.433 1283.73 867.233 1283.13 868.1 1282.6C868.967 1282.13 869.9 1281.8 870.9 1281.6C873.433 1281.07 875.3 1281.2 876.5 1282C877.766 1282.8 878.533 1283.9 878.8 1285.3C879 1286.43 878.967 1287.7 878.7 1289.1C878.367 1290.5 878 1291.8 877.6 1293C875.067 1301.6 872.8 1310.27 870.8 1319C868.8 1327.8 866.533 1336.53 864 1345.2C865.533 1343.47 867.133 1341.77 868.8 1340.1C870.533 1338.37 872.366 1336.8 874.3 1335.4C876.233 1333.93 878.3 1332.67 880.5 1331.6C882.7 1330.47 885 1329.67 887.4 1329.2C889.066 1328.87 890.866 1328.87 892.8 1329.2C894.666 1329.47 896.433 1330.1 898.1 1331.1C899.833 1332.03 901.333 1333.33 902.6 1335C903.867 1336.67 904.733 1338.7 905.2 1341.1C905.333 1341.7 905.4 1342.83 905.4 1344.5C905.4 1346.23 905.3 1348.2 905.1 1350.4C904.9 1352.53 904.533 1354.8 904 1357.2C903.533 1359.53 902.933 1361.63 902.2 1363.5C902.667 1364.03 903.233 1364.3 903.9 1364.3C904.5 1364.3 905.2 1364.23 906 1364.1C908.533 1363.57 910.966 1362.73 913.3 1361.6C915.7 1360.47 917.9 1359.2 919.9 1357.8C921.966 1356.4 923.8 1354.97 925.4 1353.5C927.066 1352.1 928.467 1350.9 929.6 1349.9C930.133 1349.03 930.766 1348.53 931.5 1348.4C932.433 1348.2 933.333 1348.43 934.2 1349.1C935.067 1349.83 935.633 1350.83 935.9 1352.1C936.1 1353.37 936.066 1354.67 935.8 1356C935.533 1357.33 934.866 1358.9 933.8 1360.7C931.6 1362.63 929.4 1364.53 927.2 1366.4C924.933 1368.2 922.633 1369.83 920.3 1371.3C917.9 1372.77 915.433 1374.07 912.9 1375.2C910.3 1376.27 907.633 1377.1 904.9 1377.7C903.166 1378.03 901.5 1378.1 899.9 1377.9C898.366 1377.7 896.933 1377.2 895.6 1376.4ZM882.1 1344.6C878.967 1345.2 875.967 1346.57 873.1 1348.7C870.3 1350.83 867.9 1353.4 865.9 1356.4C863.9 1359.33 862.4 1362.5 861.4 1365.9C860.466 1369.37 860.3 1372.67 860.9 1375.8C861.1 1376.73 861.367 1377.63 861.7 1378.5C862.033 1379.37 862.533 1380.13 863.2 1380.8C863.867 1381.47 864.766 1381.93 865.9 1382.2C866.966 1382.53 868.333 1382.53 870 1382.2C873.133 1381.53 876.066 1380.17 878.8 1378.1C881.466 1375.97 883.733 1373.43 885.6 1370.5C887.467 1367.57 888.8 1364.4 889.6 1361C890.4 1357.6 890.5 1354.33 889.9 1351.2C889.7 1350.4 889.467 1349.53 889.2 1348.6C888.867 1347.73 888.4 1346.97 887.8 1346.3C887.2 1345.57 886.433 1345.03 885.5 1344.7C884.566 1344.37 883.433 1344.33 882.1 1344.6Z" fill="black"/>
<path fill-rule="evenodd" clip-rule="evenodd" d="M947.1 1311.5C951.567 1310.1 955.233 1310.1 958.1 1311.5C960.967 1312.97 963 1315.6 964.2 1319.4C964.867 1321.6 965.034 1324.13 964.7 1327C964.3 1329.8 963.067 1332.93 961 1336.4C958.933 1339.87 955.9 1343.67 951.9 1347.8C947.967 1352 942.8 1356.6 936.4 1361.6C937.133 1363.07 938.333 1364 940 1364.4C941.667 1364.87 943.667 1364.73 946 1364C948.4 1363.2 950.9 1362 953.5 1360.4C956.033 1358.73 958.5 1356.93 960.9 1355C963.3 1352.93 965.6 1350.83 967.8 1348.7C970 1346.57 971.967 1344.6 973.7 1342.8C975.434 1340.93 976.867 1339.33 978 1338C979.133 1336.73 979.9 1335.9 980.3 1335.5C980.633 1335.03 981 1334.7 981.4 1334.5C981.8 1334.37 982.167 1334.23 982.5 1334.1C983.1 1333.9 983.667 1333.87 984.2 1334C984.734 1334.2 985.2 1334.43 985.6 1334.7C986.067 1335.03 986.4 1335.4 986.6 1335.8C986.867 1336.2 987.067 1336.57 987.2 1336.9C987.334 1337.37 987.467 1337.97 987.6 1338.7C987.667 1339.37 987.5 1340.27 987.1 1341.4C986.9 1341.73 986.233 1342.73 985.1 1344.4C983.967 1346.07 982.467 1348.07 980.6 1350.4C978.667 1352.8 976.4 1355.4 973.8 1358.2C971.2 1361 968.367 1363.7 965.3 1366.3C962.233 1368.9 958.967 1371.33 955.5 1373.6C951.967 1375.8 948.333 1377.5 944.6 1378.7C941.4 1379.7 938.367 1380 935.5 1379.6C932.633 1379.13 930 1378.13 927.6 1376.6C925.2 1375.13 923.1 1373.17 921.3 1370.7C919.567 1368.3 918.2 1365.6 917.2 1362.6C916.467 1360.33 916.134 1357.67 916.2 1354.6C916.2 1351.6 916.6 1348.43 917.4 1345.1C918.267 1341.77 919.5 1338.4 921.1 1335C922.767 1331.53 924.8 1328.3 927.2 1325.3C929.667 1322.3 932.533 1319.6 935.8 1317.2C939.133 1314.73 942.9 1312.83 947.1 1311.5ZM947.8 1323.5C947.533 1323.5 947.267 1323.53 947 1323.6C946.8 1323.67 946.567 1323.73 946.3 1323.8C944.3 1324.47 942.533 1325.5 941 1326.9C939.533 1328.23 938.267 1329.8 937.2 1331.6C936.134 1333.33 935.3 1335.23 934.7 1337.3C934.1 1339.3 933.6 1341.27 933.2 1343.2C932.8 1345.07 932.533 1346.87 932.4 1348.6C932.267 1350.27 932.2 1351.67 932.2 1352.8C933.8 1351.2 935.4 1349.47 937 1347.6C938.6 1345.73 940.1 1343.97 941.5 1342.3C942.9 1340.63 944.1 1339.13 945.1 1337.8C946.1 1336.47 946.833 1335.57 947.3 1335.1C949.167 1332.83 950.367 1330.9 950.9 1329.3C951.367 1327.7 951.467 1326.43 951.2 1325.5C950.934 1324.7 950.467 1324.13 949.8 1323.8C949.133 1323.47 948.467 1323.37 947.8 1323.5Z" fill="black"/>
<path d="M998.1 1304C999.5 1301.87 1001.03 1299.8 1002.7 1297.8C1004.37 1295.87 1006.03 1294.07 1007.7 1292.4C1009.37 1290.8 1011.03 1289.37 1012.7 1288.1C1014.3 1286.9 1015.8 1285.97 1017.2 1285.3C1019.53 1284.3 1021.57 1284.07 1023.3 1284.6C1025.03 1285.13 1026.5 1286.7 1027.7 1289.3C1027.9 1289.9 1028.13 1290.53 1028.4 1291.2C1028.6 1291.87 1028.8 1292.57 1029 1293.3C1029.33 1294.77 1029.27 1296.67 1028.8 1299C1028.27 1301.4 1027.6 1303.93 1026.8 1306.6C1025.93 1309.33 1024.97 1312.1 1023.9 1314.9C1022.77 1317.77 1021.73 1320.4 1020.8 1322.8C1019.87 1325.2 1019.13 1327.27 1018.6 1329C1018.07 1330.73 1017.9 1331.83 1018.1 1332.3C1018.3 1332.7 1018.43 1332.97 1018.5 1333.1C1018.63 1333.23 1018.9 1333.2 1019.3 1333C1021.57 1330.6 1024.03 1327.8 1026.7 1324.6C1029.37 1321.47 1032 1318.27 1034.6 1315C1037.2 1311.73 1039.63 1308.6 1041.9 1305.6C1044.17 1302.6 1046.07 1300.03 1047.6 1297.9C1048 1297.43 1048.4 1297 1048.8 1296.6C1049.2 1296.2 1049.6 1295.9 1050 1295.7C1050.93 1295.3 1051.83 1295.27 1052.7 1295.6C1053.57 1296 1054.23 1296.7 1054.7 1297.7C1055.23 1298.9 1055.33 1300.47 1055 1302.4C1054.67 1304.33 1053.7 1306.63 1052.1 1309.3C1050.77 1311.23 1049.3 1313.4 1047.7 1315.8C1046.1 1318.2 1044.43 1320.7 1042.7 1323.3C1040.97 1325.9 1039.17 1328.47 1037.3 1331C1035.43 1333.53 1033.6 1335.87 1031.8 1338C1030 1340.13 1028.27 1342 1026.6 1343.6C1024.87 1345.2 1023.27 1346.33 1021.8 1347C1018.27 1348.53 1015.23 1348.87 1012.7 1348C1010.17 1347.07 1008.33 1345.27 1007.2 1342.6C1007 1342.2 1006.87 1341.9 1006.8 1341.7C1006.2 1339.23 1005.9 1336.77 1005.9 1334.3C1005.97 1331.77 1006.2 1329.27 1006.6 1326.8C1007 1324.4 1007.47 1322.03 1008 1319.7C1008.6 1317.37 1009.1 1315.2 1009.5 1313.2C1009.9 1311.27 1010.2 1309.5 1010.4 1307.9C1010.53 1306.3 1010.37 1304.97 1009.9 1303.9C1009.77 1303.63 1009.6 1303.4 1009.4 1303.2C1009.13 1302.93 1008.83 1302.9 1008.5 1303.1C1007.9 1303.37 1007 1304.03 1005.8 1305.1C1004.6 1306.17 1003.37 1307.47 1002.1 1309C1000.9 1310.47 999.8 1312 998.8 1313.6C997.8 1315.27 997.234 1316.8 997.1 1318.2C996.9 1320 995.6 1326.9 995.1 1328.5C994.634 1330.1 994 1331.57 993.2 1332.9C992.4 1334.23 991.467 1335.4 990.4 1336.4C989.4 1337.47 988.4 1338.2 987.4 1338.6C986.2 1339.13 985.1 1339.27 984.1 1339C983.167 1338.67 982.4 1337.8 981.8 1336.4C981.533 1335.87 981.3 1335.13 981.1 1334.2C980.9 1333.27 980.867 1332.17 981 1330.9C981.1 1328.8 982.3 1321.4 982.6 1316C981.6 1315.73 980.667 1315.23 979.8 1314.5C978.867 1313.83 978.134 1312.83 977.6 1311.5C977 1310.3 976.767 1309.13 976.9 1308C977.033 1306.87 977.4 1305.83 978 1304.9C978.6 1303.97 979.434 1303.1 980.5 1302.3C981.5 1301.5 982.633 1300.8 983.9 1300.2C985.233 1299.67 986.634 1299.2 988.1 1298.8C989.5 1298.47 990.834 1298.3 992.1 1298.3C993.367 1298.3 994.467 1298.47 995.4 1298.8C996.333 1299.2 997 1299.83 997.4 1300.7C997.467 1300.83 997.5 1301.03 997.5 1301.3C997.567 1301.63 997.6 1301.97 997.6 1302.3C997.6 1302.7 997.6 1303.03 997.6 1303.3C997.6 1303.63 997.634 1303.87 997.7 1304C997.767 1304.13 997.833 1304.17 997.9 1304.1L998.1 1304Z" fill="black"/>
<path fill-rule="evenodd" clip-rule="evenodd" d="M1061 1257C1062.87 1255.87 1064.97 1254.93 1067.3 1254.2C1069.7 1253.4 1072.13 1253.07 1074.6 1253.2C1077.07 1253.27 1079.43 1253.9 1081.7 1255.1C1084.03 1256.3 1086.03 1258.3 1087.7 1261.1C1088.57 1262.57 1089.37 1264.33 1090.1 1266.4C1090.8 1268.5 1093.9 1280.6 1093.8 1286.4C1093.67 1290.07 1093.17 1293.67 1092.3 1297.2C1091.37 1300.73 1090.03 1304.1 1088.3 1307.3C1086.5 1310.5 1084.3 1313.5 1081.7 1316.3C1079.1 1319.03 1076 1321.47 1072.4 1323.6C1071.07 1324.4 1069.37 1325.07 1067.3 1325.6C1065.17 1326.13 1062.93 1326.27 1060.6 1326C1058.27 1325.73 1055.97 1324.93 1053.7 1323.6C1051.43 1322.27 1049.43 1320.2 1047.7 1317.4C1046.57 1315.47 1045.53 1312.97 1044.6 1309.9C1043.6 1306.83 1042.87 1303.5 1042.4 1299.9C1042 1296.3 1041.93 1292.5 1042.2 1288.5C1042.47 1284.5 1043.3 1280.6 1044.7 1276.8C1046.03 1272.93 1048.03 1269.3 1050.7 1265.9C1053.37 1262.43 1056.8 1259.47 1061 1257ZM1064.8 1271.9C1062.53 1273.23 1060.7 1275.1 1059.3 1277.5C1057.9 1279.83 1056.93 1282.4 1056.4 1285.2C1055.87 1288.07 1055.83 1290.93 1056.3 1293.8C1056.7 1296.73 1057.63 1299.4 1059.1 1301.8C1059.63 1302.73 1060.3 1303.7 1061.1 1304.7C1061.9 1305.7 1062.8 1306.53 1063.8 1307.2C1064.8 1307.87 1065.93 1308.27 1067.2 1308.4C1068.4 1308.47 1069.73 1308.07 1071.2 1307.2C1073.4 1305.93 1075.2 1304.07 1076.6 1301.6C1078 1299.2 1078.93 1296.57 1079.4 1293.7C1079.93 1290.83 1079.97 1287.9 1079.5 1284.9C1079.03 1281.97 1078.07 1279.27 1076.6 1276.8C1076 1275.8 1075.37 1274.83 1074.7 1273.9C1073.9 1272.97 1073.03 1272.2 1072.1 1271.6C1071.1 1271 1070 1270.67 1068.8 1270.6C1067.6 1270.6 1066.27 1271.03 1064.8 1271.9Z" fill="black"/>
<path fill-rule="evenodd" clip-rule="evenodd" d="M1243.7 1056.9L1239.9 1063.7L1239.2 1064.9L1235.4 1071.8L1228 1074.4L1032.7 1144.4L1029.3 1145.6H1025.6L493.6 1145.5H490.5L487.6 1144.6L271.4 1080.2L263.6 1077.8L259.4 1070.9L258 1068.4L253.8 1061.5L255.4 1053.5L295.9 857.6L297.4 850.4L303.1 845.7L411.9 756.6L507.5 505L518.6 475.7L541.4 497.2L550.3 505.6L621 361.9L622.2 359.5L623.9 357.5L724.4 240.9L742.1 220.3L757.5 242.7L866.7 401.5L978.7 412.8L992.4 414.2L996.6 427.3L1043.6 577.1L1079 570.6L1099.5 566.7L1103.4 587.2L1145.1 805.4L1225.8 973.8L1226.9 976.1L1227.4 978.6L1242.1 1049.3L1243.7 1056.9ZM492.8 1119.6L481.3 1025.7C479.4 1025.5 477.8 1024.5 476.8 1022.9L283.4 1058.5C283.4 1058.8 491.6 1120 492.8 1119.6ZM529.7 516.8L443.5 744.2C443.5 744.2 554.8 545 555.2 544.3L529.7 516.8ZM434 768.9L498.7 756.2C499.4 752.6 502.4 749.8 506.2 749.8C507.6 749.8 508.8 750.2 509.9 750.8L597 654.1C595.1 652.1 594 649.4 594 646.5C594 642.7 595.8 639.4 598.7 637.4L557.1 548.7C557.033 548.7 557 548.7 557 548.7C557 548.7 433.9 768.5 434 768.9ZM857.4 425.6L1023.9 598C1023.9 598 975.8 439.9 975.1 437.6C975.1 437.6 857.5 425.5 857.4 425.6ZM1029.8 605.2C1029.5 606.6 1118.7 800.7 1118.7 800.7C1118.7 800.7 1082.9 597.7 1081.7 595.6L1029.8 605.2ZM864.4 1070.3C864.2 1069.5 864 1068.6 864 1067.6C864 1066.1 864.3 1064.7 864.8 1063.4L672.7 897.1C671 898.4 669 899.2 666.8 899.4V1120.2C668.4 1120.5 864.4 1070.3 864.4 1070.3ZM659.8 1120.5L548.1 1058.8C547.2 1061 545.1 1062.4 542.6 1062.4C541.7 1062.4 540.8 1062.2 540 1061.8L497.2 1120.5C497.8 1121.1 659.8 1120.5 659.8 1120.5ZM281 1056.5L476 1021C475.9 1020.5 475.7 1020.2 475.7 1019.7C475.7 1018.1 476.4 1016.6 477.4 1015.5L399.5 879.9C398 880.6 396.5 880.9 394.8 880.9C393 880.9 391.3 880.5 389.8 879.7C389.8 879.7 280.4 1054.2 281 1056.5ZM399.6 859.5C400.1 859.8 400.6 860 401.1 860.3L499 760.7C498.7 759.9 498.6 759.1 498.5 758.3L432 771.4C431.9 774.7 399.6 859.5 399.6 859.5ZM854.5 425.6L826.2 570.7C828.3 572.1 829.7 574.4 829.7 577.1C829.7 579.5 828.5 581.7 826.7 583.1L847.1 778.9C848.8 779 850.3 779.6 851.5 780.6L1026.4 603.2C1025.8 602.3 854.5 425.6 854.5 425.6ZM1029 608.8C1028.93 608.8 1028.87 608.8 1028.8 608.8V889.2C1029.67 889.333 1030.43 889.667 1031.1 890.2L1121.8 812.3C1121.4 811.5 1029 608.8 1029 608.8ZM1205 986.6L1038.2 1118.4L1219.5 1052.9C1219.5 1052.9 1206 987.1 1205 986.6ZM404.1 863.3C405.3 865.1 406.1 867.3 406.1 869.7C406.1 870 406 870.4 406 870.7L475.3 890.5C476.3 888.7 478.2 887.4 480.5 887.4C480.6 887.4 480.8 887.5 480.9 887.5L503.1 764.8C502.6 764.6 502.2 764.2 501.8 763.9L404.1 863.3ZM609 657.1L664 877.2C664.6 877.1 665.1 877 665.7 877C666.367 877 667.034 877.067 667.7 877.2L690.8 792.6C689.6 791.5 688.7 789.9 688.7 788.1C688.7 786.4 689.4 785 690.4 783.9L609.4 656.9C609.267 656.967 609.133 657.033 609 657.1ZM815.9 581.8L616.4 645.1C616.4 645.6 616.5 646 616.5 646.5C616.5 647.8 616.2 649.1 615.8 650.3L840.5 782.1C841.167 781.167 842 780.433 843 779.9L822.6 584.7C822.4 584.7 822.2 584.9 821.9 584.9C819.4 584.9 817.3 583.6 815.9 581.8ZM700.9 788.1C700.9 789.2 700.5 790.2 700 791.1L870.1 1057.7C870.633 1057.37 871.233 1057.13 871.9 1057L844.5 794C841.9 793.2 840 791.2 839.3 788.7L700.6 786.6C700.7 787.1 700.9 787.5 700.9 788.1ZM1022.8 896.9C1022.5 896.2 1022.2 895.4 1022.2 894.5C1022.2 894.2 1022.3 894 1022.4 893.7L850.9 793.1C850.233 793.5 849.5 793.8 848.7 794L876 1056.4C878.3 1056.6 880.4 1057.4 882.1 1058.7L1022.8 896.9ZM852.9 782.1C853.9 783.4 854.5 784.9 854.5 786.6C854.5 787.8 854.2 788.9 853.7 789.9L1024.5 890.1C1025.1 889.633 1025.83 889.3 1026.7 889.1C1026.7 889.1 1027.7 606.1 1027.1 605.7L852.9 782.1ZM612.9 654.7L694.2 782.1C694.4 782.1 694.6 782 694.8 782C696.7 782 698.4 783 699.5 784.4L838.8 786.6C838.8 786.4 838.9 786.3 838.9 786.1L613.6 653.9C613.4 654.167 613.167 654.433 612.9 654.7ZM655.5 893C654.967 892 654.633 890.9 654.5 889.7L486.1 895.4C485.7 896.6 484.9 897.6 483.8 898.3V1014C484.6 1014.33 485.3 1014.77 485.9 1015.3L655.5 893ZM656.4 881.9L512.7 761.8C511.5 763.6 509.6 764.9 507.3 765.2L484.9 889.3C485.9 890.3 486.5 891.7 486.5 893.2L654.5 887.6C654.6 885.5 655.3 883.5 656.4 881.9ZM401.3 878.8L479.2 1014.3C479.334 1014.17 479.5 1014.07 479.7 1014V899.4C477.1 899 475.1 897.1 474.6 894.6L404.9 874.7C404 876.3 402.8 877.8 401.3 878.8ZM487.9 1019.7C487.9 1020.8 487.5 1021.7 487 1022.6L539.2 1051.5C540.2 1050.8 541.3 1050.3 542.6 1050.3C543.6 1050.3 544.5 1050.6 545.3 1051L658.3 896.7C658.166 896.567 658.067 896.467 658 896.4L487.8 1019.2C487.8 1019.4 487.9 1019.5 487.9 1019.7ZM548.7 1056.3C548.7 1056.5 548.6 1056.6 548.6 1056.7L664.4 1120.8C665.3 1119.7 664.7 899.4 664.7 899.4C663 899.3 661.4 898.7 660 897.9L547 1052.2C548 1053.3 548.7 1054.7 548.7 1056.3ZM677 888.3C677 890.3 676.4 892.2 675.4 893.9L865.8 1058.7L696.7 793.7C696.1 793.9 695.5 794.1 694.8 794.1C694.1 794.1 693.4 793.9 692.7 793.7L669.7 877.7C674 879.3 677 883.4 677 888.3ZM887 1072.1L1028.1 1120.5C1029.1 1118.5 1195.9 988.3 1195.9 988.3L886.5 1069C886.3 1070.1 887.4 1071.1 887 1072.1ZM1031.3 898.6C1030.4 899.4 1029.1 900 1027.8 900C1027.1 900 1026.6 899.8 1026 899.6L885 1061.8C885.533 1062.73 885.934 1063.7 886.2 1064.7L1200.1 983C1200.1 982.8 1031.3 898.6 1031.3 898.6ZM740.3 259.5C740 259.6 645.8 370.4 645.8 370.4C646 370.6 646.134 370.8 646.2 371L849 420L740.3 259.5ZM608.7 635.8C611.5 636.7 613.7 638.6 615.1 641.1L814.3 577.8C814.2 577.5 814.1 577.3 814.1 577C814.1 572.6 817.6 569.2 821.9 569.2C822.7 569.2 823.5 569.4 824.3 569.6L852.4 425C852.4 425 645.4 374.2 643.5 374.7L608.7 635.8ZM511.6 751.9C513.1 753.3 514 755.3 514 757.5C514 758.3 513.8 759 513.6 759.8L657.7 880.2C658.9 879 660.3 878.2 661.9 877.6L606.9 657.5C606.3 657.6 605.8 657.7 605.2 657.7C602.7 657.7 600.4 656.8 598.5 655.4L511.6 751.9ZM483.4 1025.4L494.9 1119.5C495.7 1119.6 538.3 1060.6 538.3 1060.6C537.2 1059.5 536.5 1058 536.5 1056.3C536.5 1055 537 1053.9 537.6 1053L485.7 1024.2C485.034 1024.8 484.267 1025.2 483.4 1025.4ZM682.5 1120.5H1020.1L884.6 1074C882.5 1076.9 879.2 1078.8 875.3 1078.8C871.5 1078.8 868.2 1077 866.2 1074.1L682.5 1120.5ZM1121.9 815L1032.4 891.8C1032.9 892.6 1033.2 893.5 1033.2 894.5C1033.2 894.6 1033.1 894.7 1033.1 894.9L1200.5 979.2C1201 978.8 1122.8 815.8 1121.9 815ZM559.4 543.9L602.4 635.6C603.067 635.4 603.767 635.3 604.5 635.3L637.9 384.2C637.9 384.2 560.4 542.8 559.4 543.9ZM319.7 864.4L282.2 1047.7C282.4 1047.8 282.7 1048 282.9 1048.1L388 878.6C385.2 876.6 383.4 873.3 383.4 869.7C383.4 863.5 388.5 858.4 394.7 858.4C395.7 858.4 396.7 858.6 397.6 858.8L428 776.2C427.9 776.1 427.7 776.1 427.6 776.1C427.6 776.1 322.9 864.2 319.7 864.4Z" fill="black"/>
</svg>
